<?xml version="1.0" standalone="no"?>
<!DOCTYPE svg PUBLIC "-//W3C//DTD SVG 20010904//EN"
 "http://www.w3.org/TR/2001/REC-SVG-20010904/DTD/svg10.dtd">
<svg version="1.0" xmlns="http://www.w3.org/2000/svg"
 width="1024.000000pt" height="1024.000000pt" viewBox="0 0 1024.000000 1024.000000"
 preserveAspectRatio="xMidYMid meet">

<g transform="translate(0.000000,1024.000000) scale(0.100000,-0.100000)"
fill="#000000" stroke="none">
<path d="M1650 10179 c0 -60 9 -100 54 -249 13 -41 29 -111 36 -154 6 -43 21
-96 32 -118 17 -32 20 -50 15 -97 -7 -60 2 -81 34 -81 15 0 17 -14 18 -107 1
-169 13 -417 20 -429 12 -22 105 -87 135 -94 17 -5 57 -11 89 -15 44 -5 57
-10 57 -23 0 -44 -100 -480 -175 -760 -29 -110 -77 -412 -73 -456 2 -17 16 46
31 139 16 94 46 238 67 320 21 83 63 263 95 400 103 459 138 597 203 815 20
69 37 134 38 145 1 40 4 45 24 45 13 0 24 10 30 25 8 22 13 24 29 15 26 -13
31 -13 31 5 0 19 15 19 45 -1 13 -9 33 -13 43 -10 11 4 24 0 32 -9 16 -19 40
-20 40 -1 0 8 10 16 22 18 15 2 25 15 36 46 11 33 21 46 50 57 19 9 43 13 52
10 23 -7 54 29 47 55 -4 17 -1 20 22 18 35 -3 52 9 44 29 -5 12 4 8 29 -11 35
-26 36 -27 43 -7 7 24 25 28 25 7 0 -7 7 -19 15 -26 10 -9 15 -9 15 -1 0 6 5
11 10 11 6 0 10 -7 10 -15 0 -13 54 -55 72 -55 3 0 4 9 1 21 -7 27 16 69 37
69 10 0 23 7 30 15 7 8 17 15 22 15 20 0 88 56 88 72 0 9 5 20 10 23 15 9 12
-9 -10 -67 -11 -28 -17 -54 -15 -56 3 -3 43 8 91 23 71 24 89 27 105 17 16
-10 22 -10 33 0 33 32 95 80 101 78 12 -4 63 51 75 81 7 16 16 29 21 29 14 0
11 -12 -16 -59 -34 -59 -31 -73 8 -31 18 19 41 41 50 49 16 13 16 12 2 -15 -8
-16 -15 -34 -15 -39 0 -6 -32 -39 -70 -74 -39 -35 -68 -66 -66 -69 3 -2 54 14
113 36 147 56 185 68 276 87 133 29 247 22 277 -17 3 -3 21 -10 40 -16 l35 -9
-80 -38 c-84 -40 -84 -57 0 -36 49 12 206 14 275 2 25 -4 88 -3 140 1 52 4
167 12 255 18 177 11 217 20 354 75 52 20 112 40 133 42 21 3 38 10 38 14 0 5
5 9 11 9 24 0 -7 -23 -72 -52 -89 -39 -90 -55 -1 -21 122 46 155 53 146 28 -4
-10 0 -15 15 -15 25 0 27 -17 4 -42 -13 -15 -14 -18 -2 -18 8 0 20 5 26 11 14
14 16 10 42 -81 12 -41 45 -122 74 -180 42 -86 64 -118 123 -176 76 -75 124
-104 173 -104 37 0 39 -11 9 -53 -45 -66 -214 -260 -325 -375 l-32 -33 32 -29
c162 -152 342 -225 544 -223 l52 1 -75 -82 c-120 -128 -179 -271 -138 -334 33
-51 171 -172 196 -172 5 0 31 -17 56 -37 26 -21 48 -38 50 -39 5 -3 32 -137
32 -161 0 -33 31 -92 52 -98 25 -8 54 -52 67 -103 7 -23 16 -42 21 -42 5 0 12
-11 16 -25 3 -13 12 -29 20 -36 24 -20 5 -29 -49 -24 -29 3 -288 12 -577 21
-289 8 -563 19 -610 24 -47 5 -146 13 -220 16 -189 10 -209 19 -55 27 118 5
185 19 185 39 0 14 -44 36 -130 66 -155 54 -326 120 -371 142 -104 52 -269
107 -364 120 -73 11 -463 -36 -640 -76 -27 -7 -29 -6 -16 10 22 27 6 30 -61
11 -35 -9 -79 -19 -98 -21 -19 -1 -82 -8 -140 -15 -58 -7 -117 -13 -131 -13
-15 -1 -36 -9 -46 -18 -17 -16 -20 -16 -35 -2 -14 14 -21 14 -54 4 -35 -12
-38 -11 -56 14 -11 14 -27 26 -35 26 -13 0 -15 -11 -9 -69 l7 -70 -30 -16
c-35 -18 -38 -33 -13 -63 9 -11 22 -28 28 -38 17 -28 116 -29 484 -4 302 21
346 22 620 11 310 -13 380 -22 380 -53 0 -10 7 -21 15 -24 12 -5 15 -27 15
-110 0 -130 18 -301 35 -336 7 -15 9 -30 5 -33 -20 -12 -41 48 -55 156 -23
171 -26 177 -57 146 -7 -8 -19 -12 -26 -9 -7 2 -12 -5 -12 -19 0 -47 -9 -10
-19 78 -12 112 -21 130 -69 142 -63 16 -412 29 -727 26 -246 -2 -324 -6 -434
-23 -320 -51 -402 -67 -551 -108 -24 -7 -24 -7 -7 13 13 15 17 38 17 109 0 76
-4 98 -25 140 -48 96 -106 127 -122 65 -9 -34 -10 -38 -12 -55 -1 -11 -33 -15
-153 -20 -438 -18 -408 -15 -408 -42 0 -13 -4 -24 -10 -24 -5 0 -10 12 -10 26
0 16 -4 23 -11 18 -8 -5 -10 -35 -7 -93 l5 -86 -261 -1 c-226 -2 -275 -5 -366
-24 -167 -34 -287 -93 -304 -148 -7 -21 37 -356 54 -415 7 -25 23 -45 45 -60
43 -28 48 -40 86 -222 34 -166 96 -399 136 -515 53 -151 116 -220 242 -269
128 -49 119 -53 156 75 39 135 77 218 144 309 28 39 69 95 90 125 21 30 69 89
106 130 36 41 85 109 108 150 24 43 78 114 130 170 72 77 97 113 135 193 29
61 52 97 60 95 18 -4 58 -103 83 -206 11 -46 42 -145 68 -220 27 -75 65 -184
84 -242 20 -58 45 -128 57 -155 29 -68 196 -346 243 -403 21 -26 44 -54 50
-62 7 -8 11 -23 9 -33 -2 -10 6 -40 17 -67 22 -52 28 -140 12 -183 -12 -31
-54 -77 -71 -77 -8 0 -22 -7 -32 -16 -16 -16 -22 -15 -75 2 -32 10 -66 18 -75
17 -10 -2 -18 2 -18 7 0 6 -9 10 -21 10 -11 0 -33 6 -47 14 -73 36 -331 94
-347 77 -9 -8 -55 -10 -55 -2 0 15 -165 -26 -181 -45 -6 -8 -26 -14 -44 -14
-21 0 -37 -7 -46 -19 -17 -24 -50 -31 -57 -12 -2 8 0 11 5 8 5 -3 10 0 10 8 0
8 -9 15 -19 15 -11 0 -18 -7 -18 -19 0 -11 -4 -23 -10 -26 -5 -3 -7 -37 -5
-80 4 -56 2 -75 -7 -75 -9 0 -8 -3 2 -10 33 -21 -16 -10 -68 16 -66 33 -148
123 -195 215 -21 39 -37 66 -37 59 0 -22 60 -132 104 -188 24 -32 69 -77 99
-100 48 -38 55 -48 67 -99 7 -32 17 -101 21 -153 7 -88 7 -85 5 42 -3 101 0
138 9 142 7 2 63 -13 126 -34 107 -36 122 -44 74 -41 -11 1 -29 -5 -40 -13
-18 -14 -18 -15 -2 -16 9 0 17 -7 17 -15 0 -8 4 -15 9 -15 5 0 11 -9 14 -20 4
-16 0 -20 -19 -20 -15 0 -24 6 -24 15 0 8 -4 15 -8 15 -18 0 -75 -57 -99 -97
-14 -24 -34 -48 -44 -54 -10 -5 -19 -17 -19 -25 0 -8 -18 -48 -40 -87 -38 -69
-40 -79 -49 -201 -10 -124 -5 -207 18 -346 14 -82 27 -110 52 -110 12 0 23 -8
26 -20 3 -11 9 -20 13 -20 15 0 20 -45 6 -56 -13 -9 -13 -25 0 -115 16 -113
30 -169 45 -169 5 0 9 10 10 23 1 18 2 17 10 -8 5 -16 11 -42 14 -56 3 -14 21
-70 41 -125 47 -128 51 -142 74 -249 28 -136 33 -171 35 -288 1 -67 6 -112 13
-119 7 -7 12 -36 12 -66 0 -115 54 -351 101 -443 28 -56 117 -143 253 -249
240 -188 199 -166 333 -179 68 -7 139 -21 168 -32 28 -11 90 -25 139 -31 77
-10 98 -9 162 7 58 14 94 17 176 12 60 -4 137 -2 185 5 l82 11 37 -33 c69 -60
128 -72 256 -49 60 11 70 10 86 -5 11 -9 26 -14 35 -10 9 3 26 -1 39 -10 12
-9 30 -16 40 -16 21 0 21 -1 9 -34 -9 -21 -6 -28 22 -49 66 -51 185 -174 228
-237 24 -36 47 -67 50 -70 3 -3 24 -32 46 -65 22 -33 52 -71 65 -85 14 -14 44
-51 67 -83 23 -32 49 -61 57 -64 8 -3 14 -11 14 -19 0 -8 5 -14 11 -14 13 0
59 -41 59 -54 0 -4 11 -22 25 -38 14 -16 23 -34 20 -39 -4 -5 1 -6 11 -2 13 5
15 2 10 -15 -8 -24 14 -63 58 -104 15 -14 25 -31 22 -37 -4 -6 -3 -11 3 -11 5
0 12 6 14 13 4 7 8 3 13 -11 6 -22 8 -22 25 -6 18 16 19 16 20 -12 l1 -29 13
30 c12 24 14 26 15 9 0 -18 6 -20 43 -19 23 1 53 7 65 14 12 7 27 9 32 6 6 -4
17 1 26 9 19 19 54 5 54 -22 0 -14 9 -18 40 -19 22 -1 40 2 40 8 0 10 38 27
74 35 11 2 22 7 25 12 12 18 47 30 72 25 15 -3 30 1 38 10 10 13 8 19 -10 36
-13 12 -19 26 -15 36 8 23 41 14 41 -10 0 -23 23 -33 78 -34 31 -1 37 2 37 19
0 17 7 20 40 20 22 0 40 3 40 7 0 8 -61 63 -71 63 -4 0 -9 -6 -12 -12 -2 -7
-8 -10 -12 -6 -14 13 14 36 52 43 20 3 42 13 50 21 8 8 24 14 35 14 20 0 21
-1 3 -20 -17 -19 -17 -21 0 -40 22 -24 35 -26 35 -5 0 11 11 15 40 15 29 0 40
4 40 15 0 11 -11 15 -38 15 -36 0 -39 2 -40 30 -1 26 3 30 25 30 16 0 27 7 30
20 3 11 8 20 11 20 18 0 90 -53 95 -70 3 -13 13 -20 29 -19 17 1 18 3 6 6 -24
6 -23 24 2 30 10 3 22 14 25 24 4 12 19 22 36 26 40 8 46 21 12 29 -47 10 -60
16 -45 21 18 7 15 21 -5 26 -17 4 -17 5 0 6 12 1 17 10 17 34 0 17 2 41 4 52
2 11 1 14 -1 8 -3 -7 -15 -13 -29 -13 -21 0 -24 4 -24 40 0 36 3 40 25 40 23
0 25 4 25 40 0 30 -4 40 -16 40 -13 0 -14 3 -4 15 7 8 16 12 21 9 8 -5 13 9
11 27 -3 19 39 -7 44 -27 5 -21 12 -24 55 -24 l49 0 0 45 c0 45 14 83 36 97 6
4 9 19 6 34 -7 39 20 27 33 -14 7 -24 15 -32 32 -32 14 0 23 6 23 15 0 8 7 15
15 15 23 0 21 -77 -2 -82 -16 -3 -16 -4 0 -20 20 -20 22 -44 5 -51 -8 -3 -6
-6 5 -6 13 -1 17 7 17 37 0 46 49 103 72 84 17 -13 44 1 33 18 -4 6 -13 9 -21
6 -32 -12 -11 10 26 28 46 22 51 41 13 51 -15 3 -22 9 -17 13 6 4 19 29 29 56
11 27 21 44 23 38 2 -7 10 -12 18 -12 21 0 43 59 37 98 -3 20 -1 32 6 32 6 0
11 -18 11 -42 l0 -42 21 23 c19 20 20 26 9 72 -7 27 -16 49 -21 49 -5 0 -9 9
-9 19 0 16 -8 21 -42 24 l-43 4 43 1 c39 2 42 4 42 31 0 25 3 28 25 23 24 -4
25 -2 25 41 0 28 6 52 16 61 14 15 14 16 -5 16 -27 0 -27 20 -1 27 25 7 26 30
3 36 -11 3 -6 5 11 6 23 1 27 5 23 21 -3 10 2 25 10 32 9 7 13 22 9 39 -3 18
0 32 10 40 10 8 14 23 11 38 -5 28 19 85 32 77 4 -3 14 47 21 111 9 83 10 118
2 121 -6 2 -9 9 -6 17 3 8 12 11 20 8 9 -3 14 2 14 17 0 15 -5 20 -14 17 -20
-8 -26 14 -9 31 7 7 13 24 13 37 0 18 4 23 15 19 8 -4 15 -1 15 5 0 6 -7 11
-15 11 -12 0 -15 11 -13 50 2 31 7 50 14 50 7 0 14 -6 17 -12 2 -7 8 -10 12
-5 5 4 3 13 -3 19 -20 20 -15 58 8 58 22 0 26 20 8 38 -7 7 -8 12 -4 12 5 0 3
7 -4 15 -7 8 -16 13 -19 10 -4 -2 -8 2 -8 10 0 8 4 15 9 15 4 0 8 -4 8 -10 0
-5 9 -10 20 -10 11 0 20 7 20 15 0 8 4 15 10 15 5 0 12 11 16 25 4 15 16 28
30 31 38 10 86 86 98 156 3 15 8 32 11 38 4 6 2 17 -4 24 -19 23 4 69 68 136
34 36 71 83 82 105 19 39 20 42 3 100 -10 33 -19 90 -20 127 -3 59 -7 72 -39
113 -19 26 -35 52 -35 59 0 28 -40 136 -65 176 -27 43 -27 84 1 73 7 -3 14 -1
14 4 0 6 11 15 25 21 35 16 39 49 16 123 -10 35 -22 102 -25 149 -3 47 -11
101 -17 120 -5 19 -14 65 -19 102 -5 37 -19 86 -31 109 -12 25 -19 52 -16 68
3 14 10 55 17 89 9 45 9 70 2 85 -6 12 -18 56 -27 97 -9 41 -25 104 -36 140
-23 74 -23 81 -14 170 9 80 -8 241 -29 272 -12 19 -14 62 -12 248 2 128 9 247
16 277 10 45 9 57 -4 85 l-16 32 42 44 c24 24 70 64 103 88 33 24 85 76 115
116 55 72 57 73 103 74 26 0 53 6 59 12 7 7 18 12 25 12 7 0 21 4 31 8 138 67
179 92 227 138 168 161 448 284 649 284 99 0 173 -18 283 -70 104 -49 175
-114 258 -240 71 -105 113 -202 144 -330 53 -220 46 -327 -43 -585 -51 -150
-91 -246 -147 -353 -162 -306 -271 -432 -481 -552 -28 -15 -91 -64 -118 -90
-34 -34 -148 -114 -194 -137 -39 -20 -50 -22 -57 -11 -7 10 -9 9 -9 -4 0 -18
-12 -23 -75 -33 -22 -3 -58 -9 -80 -12 -66 -11 -188 -5 -225 11 -19 9 -54 20
-77 26 -24 6 -43 15 -43 20 0 6 -7 10 -15 10 -9 0 -18 7 -21 15 -4 8 -13 15
-21 15 -8 0 -28 8 -46 17 -18 9 -36 18 -42 19 -5 1 -18 5 -27 9 -24 10 -37
-27 -28 -77 4 -21 5 -48 3 -61 -3 -14 2 -31 11 -40 9 -8 16 -20 16 -26 0 -5 7
-14 15 -19 9 -4 17 -18 18 -29 0 -12 4 -20 8 -18 3 3 9 -25 13 -61 5 -52 3
-72 -9 -90 -8 -13 -15 -30 -15 -38 0 -8 -10 -22 -22 -30 -19 -14 -20 -18 -9
-40 8 -14 11 -36 9 -50 -3 -14 -1 -26 3 -26 5 0 9 -24 10 -52 0 -42 2 -48 9
-30 5 12 7 29 3 39 -5 14 -1 15 35 10 40 -5 56 5 30 17 -10 5 -10 7 -1 12 7 3
28 18 48 34 32 26 34 30 18 39 -17 10 -17 10 0 11 24 0 89 61 83 77 -3 8 1 16
9 19 8 4 15 12 15 20 0 8 9 14 21 14 13 0 20 6 18 18 -4 28 20 74 41 79 19 5
19 6 4 18 -15 10 -12 11 16 7 23 -3 31 -1 26 7 -11 17 18 41 43 34 15 -4 29 1
42 16 11 11 32 21 47 21 80 0 189 53 344 167 121 89 173 128 178 133 27 27
102 81 107 76 3 -3 -5 -45 -17 -93 -32 -125 -41 -400 -14 -441 14 -22 18 -49
19 -140 l1 -113 53 -52 53 -52 -7 -77 c-6 -70 -4 -83 19 -135 14 -32 30 -76
35 -98 5 -22 19 -74 30 -115 11 -41 26 -97 32 -125 6 -27 27 -104 46 -170 19
-66 51 -178 70 -250 88 -325 161 -558 257 -820 30 -82 65 -177 76 -210 53
-146 161 -351 288 -543 47 -71 58 -83 76 -77 53 16 360 65 441 71 94 5 122 -2
112 -30 -4 -11 -19 -16 -42 -16 -71 0 -252 -35 -419 -81 -27 -7 -42 -7 -49 0
-6 6 -15 11 -19 11 -11 0 68 -113 100 -143 15 -14 45 -44 67 -67 22 -23 59
-56 82 -73 24 -17 43 -38 43 -46 0 -60 -196 -265 -352 -369 -59 -40 -110 -72
-114 -72 -4 0 -43 -22 -88 -48 -45 -27 -216 -120 -381 -207 -351 -186 -388
-207 -387 -220 0 -6 24 -15 51 -21 80 -18 84 -21 71 -45 -26 -47 -84 -99 -145
-128 -36 -18 -65 -38 -65 -46 0 -8 -3 -14 -7 -13 -12 3 -83 -35 -83 -44 0 -4
414 -8 920 -8 l920 0 0 859 0 859 -29 4 c-16 2 -168 -17 -336 -44 -252 -39
-310 -46 -323 -36 -27 22 -123 178 -193 313 -142 273 -330 805 -447 1267 -60
232 -59 212 -7 261 l45 42 -9 49 c-5 27 -7 55 -4 63 3 7 1 19 -4 26 -5 6 -9
19 -8 27 1 8 -5 36 -12 62 -10 34 -12 94 -8 226 3 117 2 183 -5 187 -18 11
-11 40 12 50 19 8 29 34 61 160 21 83 52 188 69 235 17 47 70 202 118 345 49
143 102 291 119 328 17 38 31 76 31 85 0 9 16 42 35 73 56 91 95 200 106 297
6 51 18 103 30 127 12 22 29 56 39 75 10 19 33 78 51 130 33 94 91 193 154
260 20 21 35 51 40 75 4 21 13 51 21 66 32 62 35 115 14 203 -19 79 -19 89 -5
231 8 82 17 150 19 152 1 2 19 -4 39 -12 53 -22 113 -19 138 6 20 20 21 29 15
93 -3 40 -21 114 -41 171 -19 55 -35 108 -35 117 0 10 16 38 35 63 80 106 166
494 146 660 -45 372 -51 402 -93 540 -33 110 -55 157 -134 290 -100 168 -113
219 -99 375 l7 75 -60 140 c-70 162 -102 222 -137 255 -27 25 -32 40 -13 40 6
0 9 -3 6 -6 -3 -3 15 -25 42 -50 41 -38 70 -85 119 -194 10 -23 11 -22 5 10
-16 99 -112 231 -229 315 -79 56 -156 149 -192 232 l-27 63 -3828 0 -3828 0 0
-61z m193 -87 c4 22 4 21 6 -3 0 -15 8 -29 16 -32 14 -6 65 -99 79 -145 7 -21
5 -22 -27 -19 -23 3 -44 14 -61 33 -34 39 -80 148 -72 170 6 15 9 15 30 -5
l24 -23 5 24z m4009 -537 c12 -17 -1 -18 -26 -1 -14 9 -30 25 -36 37 -11 20
-10 20 22 -3 18 -12 36 -27 40 -33z m-19 -138 c59 -43 107 -83 107 -90 0 -8
-3 -8 -11 0 -6 6 -18 9 -25 6 -14 -5 -74 17 -74 29 0 3 -15 16 -33 27 -19 11
-53 47 -75 80 -45 64 -55 92 -19 51 12 -14 70 -60 130 -103z m82 95 c-3 -3
-11 0 -18 7 -9 10 -8 11 6 5 10 -3 15 -9 12 -12z m40 -12 c3 -6 -1 -7 -9 -4
-18 7 -21 14 -7 14 6 0 13 -4 16 -10z m70 -382 c-11 -54 -45 -119 -100 -194
-29 -39 -54 -79 -56 -90 -4 -18 -79 -63 -108 -64 -11 0 -11 4 2 18 10 10 17
29 17 41 0 21 21 52 163 238 67 89 93 105 82 51z m2 -150 c-31 -45 -77 -91
-85 -84 -4 4 3 16 16 26 12 10 22 22 22 26 0 10 54 63 59 58 2 -2 -3 -14 -12
-26z m-110 -115 c-9 -9 -20 -13 -24 -9 -4 4 1 14 11 22 25 18 35 8 13 -13z
m-1204 -1425 c-10 -14 -10 -195 0 -298 5 -55 3 -48 -18 45 -27 124 -49 212
-60 237 -7 17 3 21 59 26 22 2 27 -1 19 -10z m14 -80 c-3 -7 -5 -2 -5 12 0 14
2 19 5 13 2 -7 2 -19 0 -25z m-898 -14 c57 -8 107 -17 111 -19 9 -5 30 -85 30
-111 0 -18 -35 -16 -199 12 -46 8 -123 14 -170 14 -98 0 -118 9 -127 56 -6 29
-4 32 25 39 36 8 152 21 196 23 17 0 77 -6 134 -14z m-1594 -25 c50 -12 135
-24 190 -28 l100 -6 -37 -23 c-28 -17 -41 -35 -53 -72 -9 -28 -20 -50 -24 -50
-3 0 -15 23 -26 51 -17 43 -27 55 -65 73 -106 53 -200 64 -490 55 -213 -7
-314 -16 -423 -41 -65 -14 -71 -3 -11 22 82 35 250 50 514 44 190 -4 252 -8
325 -25z m975 26 c0 -3 -19 -14 -42 -25 -40 -17 -41 -19 -20 -26 26 -7 42 -40
42 -83 0 -16 9 -40 20 -53 10 -14 17 -28 13 -31 -3 -4 9 -2 27 3 18 5 31 7 28
5 -9 -9 56 -70 89 -84 18 -7 35 -22 39 -33 3 -10 18 -24 32 -29 22 -9 30 -7
44 11 24 30 41 22 24 -12 -20 -38 -31 -108 -16 -108 23 0 69 31 91 61 27 38
41 23 32 -37 -3 -23 0 -50 6 -63 12 -22 33 -29 27 -8 -3 6 -7 26 -11 42 l-6
30 33 -31 c144 -134 225 -82 233 151 l3 90 60 3 60 3 34 -63 c51 -92 111 -236
103 -248 -3 -5 -18 -10 -33 -10 -15 0 -44 -9 -65 -20 -20 -11 -44 -20 -52 -20
-19 0 -20 -19 0 -26 17 -7 75 16 75 30 0 4 13 6 30 4 20 -3 31 0 35 11 6 14 7
14 15 1 4 -8 14 -42 21 -75 14 -68 25 -86 47 -83 27 5 36 -67 36 -287 0 -243
-23 -394 -74 -500 -47 -99 -87 -118 -331 -164 -90 -18 -186 -36 -214 -42 -27
-5 -111 -13 -185 -16 -148 -6 -205 3 -236 39 -19 21 -19 21 6 14 14 -4 43 -9
65 -11 l40 -5 -45 15 c-25 7 -64 19 -87 25 -30 7 -55 26 -96 70 -55 59 -159
221 -217 338 -31 64 -36 77 -22 68 15 -9 82 54 97 91 16 38 20 73 7 73 -4 0
-22 -4 -40 -9 -37 -11 -37 -10 -16 31 14 26 14 40 4 97 -7 36 -19 81 -26 100
-17 41 -18 75 -3 65 8 -4 9 1 3 17 -4 13 -8 32 -8 42 0 9 -4 17 -9 17 -5 0 -6
16 -3 35 5 27 2 39 -14 55 -11 11 -19 23 -19 28 4 22 -4 29 -36 30 -19 1 -44
6 -55 12 -47 25 -51 -14 -15 -127 27 -84 45 -215 27 -198 -40 39 -111 432 -98
543 17 147 71 180 411 256 119 26 135 29 135 21z m-635 -45 c-3 -5 -14 -10
-23 -10 -15 0 -15 2 -2 10 20 13 33 13 25 0z m-686 -71 c64 -6 123 -15 132
-20 16 -8 43 -89 33 -98 -5 -5 -185 30 -258 50 -42 12 -91 53 -81 69 8 13 33
13 174 -1z m3190 0 c21 -8 29 -15 23 -21 -7 -7 -22 -6 -46 2 -20 6 -40 9 -45
6 -14 -9 -19 -40 -10 -64 7 -18 16 -22 51 -22 24 0 50 -5 58 -11 11 -7 -2 -9
-45 -4 -33 4 -66 12 -72 17 -7 6 -13 32 -13 59 0 49 0 49 34 49 18 0 48 -5 65
-11z m-2801 -5 c28 -8 28 -17 -2 -60 l-23 -35 -6 28 c-3 16 -15 32 -28 38 -37
16 -35 35 3 35 18 0 43 -3 56 -6z m2890 -6 c-3 -7 -11 -13 -18 -13 -7 0 -15 6
-17 13 -3 7 4 12 17 12 13 0 20 -5 18 -12z m90 -14 c16 -11 22 -25 21 -52 l-1
-37 -12 40 c-9 31 -17 41 -36 43 -14 2 -29 8 -34 13 -17 16 38 10 62 -7z
m-4118 -126 c-1 -41 -3 -49 -11 -36 -9 16 -3 88 7 88 2 0 4 -24 4 -52z m4017
36 c-3 -3 -12 -4 -19 -1 -8 3 -5 6 6 6 11 1 17 -2 13 -5z m-2930 -101 c-2 -21
-4 -6 -4 32 0 39 2 55 4 38 2 -18 2 -50 0 -70z m10 -95 c-3 -8 -6 -5 -6 6 -1
11 2 17 5 13 3 -3 4 -12 1 -19z m3891 4 c263 -7 325 -11 333 -23 4 -8 14 -39
20 -69 7 -30 18 -62 24 -70 30 -36 63 -126 60 -160 -4 -47 -32 -218 -50 -310
-8 -41 -14 -96 -15 -122 0 -26 -11 -81 -25 -122 -14 -41 -25 -89 -25 -106 0
-17 -4 -29 -9 -26 -19 12 -39 -30 -38 -79 1 -27 -4 -64 -12 -82 -11 -28 -17
-31 -41 -26 -24 4 -32 0 -54 -33 -13 -22 -28 -51 -32 -67 -5 -21 -9 -25 -19
-17 -15 13 -20 7 -30 -38 -5 -25 -10 -31 -18 -23 -20 20 -26 12 -47 -59 -22
-72 -29 -80 -50 -55 -19 22 -37 18 -44 -10 -4 -14 -25 -44 -47 -66 -22 -22
-37 -44 -34 -50 4 -5 3 -23 0 -40 -7 -29 -8 -30 -25 -14 -18 16 -20 15 -34
-20 -9 -21 -16 -46 -16 -56 0 -23 -16 -25 -24 -4 -3 8 -14 15 -26 15 -16 0
-21 -9 -26 -41 -5 -29 -13 -43 -25 -46 -11 -3 -19 -14 -19 -27 0 -35 -17 -51
-49 -48 -27 3 -32 -1 -47 -37 -11 -27 -27 -46 -52 -59 -19 -10 -39 -25 -43
-33 -4 -8 -15 -31 -25 -53 -11 -21 -25 -40 -31 -43 -7 -3 -13 -15 -13 -28 0
-26 -24 -50 -42 -42 -17 6 -34 4 -31 -5 2 -4 -5 -5 -15 -1 -13 5 -15 3 -5 -7
9 -10 8 -16 -3 -27 -19 -20 -49 -8 -75 29 -24 33 -39 25 -39 -25 0 -24 -6 -29
-45 -39 -37 -10 -45 -16 -45 -35 0 -19 -5 -23 -28 -23 -33 0 -52 -31 -52 -85
0 -39 -18 -46 -45 -19 -16 17 -24 14 -63 -23 -7 -7 -20 -13 -27 -13 -16 0 -29
-35 -20 -50 4 -6 -5 -10 -19 -10 -14 0 -26 -5 -26 -11 0 -13 -42 -1 -52 15 -4
6 -8 -8 -8 -30 0 -25 -6 -47 -15 -54 -8 -7 -15 -23 -15 -36 0 -13 -4 -24 -10
-24 -5 0 -24 -15 -42 -34 -18 -18 -43 -37 -55 -40 -13 -4 -23 -12 -23 -18 0
-6 -11 -8 -25 -6 -28 6 -36 -9 -37 -72 0 -44 0 -44 -46 -31 -51 15 -63 6 -55
-43 6 -38 5 -40 -11 -27 -16 13 -20 11 -41 -15 -14 -16 -24 -23 -25 -16 0 7
-13 12 -29 12 -29 0 -41 -14 -41 -51 0 -10 -5 -19 -11 -19 -8 0 -10 -18 -6
-59 4 -47 2 -61 -10 -65 -11 -5 -13 -15 -8 -47 10 -59 -8 -95 -51 -104 -20 -3
-32 -10 -28 -16 3 -6 -3 -13 -15 -16 -12 -3 -21 -11 -21 -17 0 -12 -44 -56
-56 -56 -11 0 -43 -45 -44 -62 0 -22 -21 -68 -30 -68 -4 0 -5 -22 -2 -50 5
-54 -12 -110 -34 -110 -17 0 -18 -17 -1 -23 14 -5 -38 -28 -68 -30 -29 -1 -45
-16 -45 -43 0 -32 -23 -31 -49 3 -25 31 -35 26 -21 -11 14 -39 13 -50 -11 -65
-18 -11 -26 -11 -48 1 -14 7 -30 19 -34 25 -13 21 -37 15 -37 -9 -1 -38 -33
-93 -55 -94 -11 0 -30 -4 -43 -8 -15 -5 -29 -3 -39 6 -14 11 -17 11 -21 -1 -3
-8 -16 -25 -31 -38 -17 -17 -27 -39 -31 -71 -6 -44 -7 -46 -17 -22 -6 14 -19
32 -28 40 -15 12 -19 12 -31 -5 -8 -10 -14 -30 -14 -43 0 -31 -29 -55 -47 -40
-7 6 -13 18 -13 26 0 15 -1 15 -16 0 -13 -12 -23 -14 -47 -7 -28 8 -34 5 -54
-19 -18 -21 -22 -23 -23 -9 0 9 -4 17 -10 17 -5 0 -10 7 -10 15 0 11 -7 14
-25 9 -15 -4 -25 -2 -25 5 0 6 -5 11 -11 11 -6 0 -10 -16 -8 -37 5 -86 1 -103
-25 -103 -22 0 -76 43 -76 61 0 12 -31 -1 -55 -22 -19 -16 -21 -16 -40 -1 -11
10 -31 39 -45 66 -14 26 -33 64 -44 82 -10 19 -25 67 -33 107 -8 40 -21 79
-28 87 -7 8 -16 25 -19 37 -4 13 -13 22 -19 20 -15 -3 -11 156 3 161 6 2 10
11 10 19 0 9 6 13 14 10 23 -9 33 13 40 87 4 38 9 72 11 75 3 2 5 -1 5 -8 0
-7 5 -9 10 -6 6 3 10 24 10 47 0 31 4 41 20 45 22 6 28 23 8 23 -9 0 -13 18
-14 52 -1 29 -2 71 -3 93 -2 22 -2 49 -3 60 0 49 -3 61 -17 72 -22 17 -173 16
-268 -2 -43 -8 -112 -15 -153 -15 l-75 -1 23 -19 c40 -34 53 -208 15 -193 -27
10 -7 -89 29 -150 17 -28 30 -54 30 -57 1 -3 2 -9 3 -15 2 -5 6 -41 10 -80 5
-60 9 -94 15 -115 3 -13 30 65 30 86 0 14 6 24 14 24 19 0 46 -27 46 -47 0 -8
8 -47 17 -85 14 -61 15 -71 2 -78 -27 -15 -32 -5 -30 59 2 46 -1 62 -10 59 -7
-2 -13 -25 -14 -54 -2 -65 -18 -94 -47 -86 -17 4 -20 2 -14 -13 11 -29 -3 -57
-25 -50 -17 6 -18 3 -10 -19 7 -16 7 -26 0 -28 -6 -2 -11 -10 -13 -18 -13 -68
-19 -90 -26 -90 -4 0 -13 -19 -20 -42 -11 -39 -13 -41 -21 -20 -5 12 -8 37 -7
55 1 37 -9 60 -22 52 -19 -12 -32 30 -35 112 -3 98 -26 205 -85 394 -64 202
-80 277 -86 404 -7 134 4 199 35 208 10 2 36 31 56 63 87 138 90 139 317 119
99 -8 188 -20 198 -25 10 -6 28 -10 40 -10 12 0 36 -6 53 -14 29 -12 117 -32
187 -41 103 -14 243 -26 280 -24 52 3 128 26 151 45 22 19 24 19 66 -24 21
-21 49 -44 63 -50 14 -7 43 -26 65 -42 55 -41 114 -70 121 -59 3 5 17 9 32 9
35 -1 70 5 77 12 3 2 -4 13 -15 23 -21 19 -27 50 -11 59 5 3 9 34 9 68 0 52
-7 76 -44 155 -48 101 -70 130 -96 125 -11 -2 -26 12 -43 42 -28 47 -55 76
-55 58 0 -6 4 -13 9 -16 13 -9 19 -66 7 -66 -6 0 -17 12 -23 28 -7 15 -29 45
-48 66 -19 22 -35 43 -35 48 0 4 -5 7 -11 6 -6 -2 -22 17 -34 41 -20 39 -24
42 -33 25 -5 -10 -7 -25 -5 -32 8 -21 -40 -10 -53 12 -11 19 -12 19 -23 -2
-20 -38 -48 -26 -41 17 1 8 -7 22 -18 30 -12 9 -25 31 -29 50 -13 53 -33 51
-33 -2 0 -48 -24 -84 -36 -53 -8 20 -34 21 -34 1 0 -20 -16 -19 -24 1 -5 12
-10 14 -19 5 -14 -11 -17 -9 -68 47 -9 9 -19 30 -23 45 -6 24 -9 27 -22 16 -8
-7 -14 -8 -13 -3 4 23 -2 42 -17 48 -12 5 -14 1 -8 -16 11 -36 10 -101 -2
-105 -17 -6 -30 38 -49 162 -8 52 -37 106 -50 95 -8 -7 -17 -4 -30 10 -10 11
-27 20 -37 20 -10 0 -21 7 -24 15 -4 8 -13 15 -20 15 -8 0 -32 12 -54 26 -27
18 -47 24 -63 20 -17 -4 -30 0 -42 14 -10 11 -13 20 -7 20 6 0 9 7 6 15 -4 8
-3 15 0 15 9 0 48 -23 65 -38 9 -9 16 -10 20 -3 4 6 36 15 71 20 191 30 276
61 301 110 8 14 20 30 26 34 7 4 13 18 13 31 0 37 37 143 62 176 l23 32 -35
29 -35 29 46 -20 c68 -29 157 -50 214 -50 80 0 498 78 655 121 134 38 181 73
223 169 45 102 67 201 77 356 6 82 15 181 20 219 5 39 10 108 10 155 1 131 -6
122 142 197 37 18 80 49 95 68 16 19 36 35 46 35 9 0 17 6 17 14 0 8 5 18 10
21 9 6 102 18 203 28 9 1 29 12 45 25 l27 23 410 -6 c226 -3 556 -9 733 -13z
m-3853 -172 c3 -5 2 -10 -3 -10 -10 0 -33 99 -31 134 0 12 7 -9 14 -46 8 -37
17 -72 20 -78z m-640 100 c77 -5 183 -16 235 -25 52 -8 122 -15 155 -13 l59 2
20 -121 c19 -115 19 -123 3 -165 -22 -56 -46 -88 -53 -70 -10 22 -21 13 -16
-13 3 -19 -6 -36 -42 -76 -25 -28 -65 -79 -89 -112 -24 -34 -70 -98 -101 -142
-69 -95 -108 -173 -137 -274 l-21 -73 -41 6 c-68 11 -182 70 -231 121 -43 44
-94 151 -110 230 l-7 30 15 -30 c7 -16 24 -55 37 -85 16 -37 45 -76 88 -118
35 -34 66 -60 69 -57 3 2 -6 14 -21 25 -84 66 -157 285 -188 565 -6 61 -17
153 -24 205 -7 52 -11 98 -8 103 2 4 19 7 37 7 38 0 126 36 126 51 0 5 -6 9
-12 7 -21 -4 -118 25 -118 35 0 10 26 9 375 -13z m-468 -287 c-3 -10 -5 -4 -5
12 0 17 2 24 5 18 2 -7 2 -21 0 -30z m63 -253 c13 -58 26 -115 31 -127 5 -14
5 -23 -1 -23 -5 0 -16 24 -25 53 -15 52 -55 253 -55 272 2 22 29 -76 50 -175z
m5220 -457 c0 -27 -3 -34 -11 -26 -7 7 -9 23 -5 37 9 37 16 32 16 -11z m-4453
-555 c-3 -8 -6 -5 -6 6 -1 11 2 17 5 13 3 -3 4 -12 1 -19z m603 -128 c11 -7
12 -12 3 -21 -6 -6 -9 -18 -6 -25 3 -8 -1 -14 -10 -14 -8 0 -18 6 -20 13 -4 7
-6 6 -6 -5 -1 -24 -53 -8 -57 18 -5 31 63 55 96 34z m307 -222 c-3 -8 -6 -5
-6 6 -1 11 2 17 5 13 3 -3 4 -12 1 -19z m-544 -67 c53 -90 191 -190 284 -206
40 -6 43 -5 49 19 5 21 9 24 20 16 7 -7 14 -21 16 -32 2 -14 11 -22 26 -23 12
-1 40 -19 61 -40 22 -20 44 -34 50 -31 10 7 51 -31 51 -46 0 -5 5 -6 10 -3 18
11 40 -15 40 -46 0 -23 -4 -29 -22 -29 -13 0 -35 7 -51 14 -25 14 -137 46
-158 46 -5 0 -9 -9 -9 -21 0 -18 -4 -20 -29 -14 -18 4 -41 1 -58 -8 -36 -18
-149 -38 -170 -30 -9 4 -14 2 -10 -3 10 -17 -9 -34 -41 -37 -18 -1 -32 -8 -32
-14 0 -22 -42 -14 -84 14 -23 16 -43 31 -46 35 -3 3 -17 9 -32 13 -32 8 -51
-19 -47 -68 5 -76 -9 -88 -41 -34 -26 42 -25 88 8 222 l27 109 53 25 c40 20
54 33 63 59 13 39 5 82 -16 82 -8 0 -15 7 -15 15 0 8 8 15 19 15 10 0 24 7 31
15 19 22 34 18 53 -14z m-269 -48 c-5 -5 -12 -12 -15 -16 -3 -5 -9 -2 -12 7
-5 12 0 16 15 16 12 0 17 -3 12 -7z m860 -19 c9 -24 7 -28 -9 -14 -17 14 -20
30 -6 30 5 0 12 -7 15 -16z m-904 -8 c0 -3 -4 -8 -10 -11 -5 -3 -10 -1 -10 4
0 6 5 11 10 11 6 0 10 -2 10 -4z m-25 -66 c3 -5 -1 -10 -9 -10 -9 0 -16 5 -16
10 0 6 4 10 9 10 6 0 13 -4 16 -10z m5752 -36 c-3 -3 -12 -4 -19 -1 -8 3 -5 6
6 6 11 1 17 -2 13 -5z m-5817 -23 c-5 -11 -10 -29 -10 -40 0 -31 -19 -35 -26
-5 -6 21 -2 31 16 46 28 23 33 23 20 -1z m-40 -83 c0 -19 -2 -20 -10 -8 -13
19 -13 30 0 30 6 0 10 -10 10 -22z m-4 -84 c-10 -39 -28 -29 -22 14 3 20 6 39
6 42 0 3 5 -3 11 -13 6 -10 8 -29 5 -43z m1094 -34 c0 -5 -4 -10 -10 -10 -5 0
-10 5 -10 10 0 6 5 10 10 10 6 0 10 -4 10 -10z m-271 -1302 c1 -16 -3 -28 -9
-28 -5 0 -10 21 -9 48 0 35 3 42 9 27 5 -11 9 -32 9 -47z m-53 -46 c3 -23 4
-24 19 -12 12 10 15 10 15 -3 0 -9 -4 -19 -10 -22 -5 -3 -11 -16 -11 -28 -1
-20 -2 -20 -6 -2 -3 11 -13 25 -23 32 -12 8 -16 20 -13 33 6 21 27 22 29 2z
m-93 -60 c2 7 7 10 11 7 3 -3 -5 -16 -19 -29 l-25 -23 0 27 c0 23 3 26 14 17
11 -9 15 -9 19 1z m-86 -119 c-3 -10 -5 -4 -5 12 0 17 2 24 5 18 2 -7 2 -21 0
-30z m-147 -103 c0 -5 -5 -10 -11 -10 -5 0 -7 5 -4 10 3 6 8 10 11 10 2 0 4
-4 4 -10z m3961 -1393 c-10 -9 -11 -8 -5 6 3 10 9 15 12 12 3 -3 0 -11 -7 -18z
m-191 -77 c0 -5 -4 -10 -10 -10 -5 0 -10 5 -10 10 0 6 5 10 10 10 6 0 10 -4
10 -10z m30 -50 c0 -11 -7 -20 -15 -20 -8 0 -15 9 -15 20 0 11 7 20 15 20 8 0
15 -9 15 -20z m-113 -11 c-1 -11 -10 -25 -20 -31 -15 -8 -18 -7 -12 3 6 9 3
11 -8 6 -8 -3 -21 1 -28 9 -16 19 3 34 43 34 21 0 26 -4 25 -21z m-32 -99 c3
-5 1 -10 -4 -10 -6 0 -11 5 -11 10 0 6 2 10 4 10 3 0 8 -4 11 -10z m145 -20
c0 -5 -2 -10 -4 -10 -3 0 -8 5 -11 10 -3 6 -1 10 4 10 6 0 11 -4 11 -10z m15
-92 c0 -13 -4 -28 -8 -35 -4 -6 -1 -13 5 -16 11 -3 -27 -2 -79 2 -7 1 -13 6
-13 11 0 6 18 10 40 10 36 0 40 3 40 25 0 14 4 25 8 25 4 0 8 -10 7 -22z m-40
2 c3 -5 -3 -10 -15 -10 -12 0 -18 5 -15 10 3 6 10 10 15 10 5 0 12 -4 15 -10z
m-125 -67 c-1 -19 -19 -35 -34 -30 -26 10 -19 37 9 37 14 0 25 -3 25 -7z
m-336 -225 c8 -39 5 -41 -28 -29 -38 15 -35 61 4 61 12 0 20 -11 24 -32z"/>
<path d="M2907 6629 c4 -13 8 -18 11 -10 2 7 -1 18 -6 23 -8 8 -9 4 -5 -13z"/>
<path d="M2931 6464 c0 -11 3 -14 6 -6 3 7 2 16 -1 19 -3 4 -6 -2 -5 -13z"/>
<path d="M3900 9785 c-61 -22 -63 -23 -29 -24 41 -1 139 28 139 41 0 13 -41 7
-110 -17z"/>
<path d="M5235 9750 c-8 -13 5 -13 25 0 13 8 13 10 -2 10 -9 0 -20 -4 -23 -10z"/>
<path d="M4501 7314 c0 -11 3 -14 6 -6 3 7 2 16 -1 19 -3 4 -6 -2 -5 -13z"/>
<path d="M8361 6908 c-52 -4 -119 -15 -150 -24 -54 -15 -175 -75 -236 -117
-34 -23 -141 -127 -131 -127 3 0 -6 -24 -20 -52 -23 -44 -28 -70 -32 -155 -4
-96 -3 -106 22 -157 15 -30 46 -71 69 -91 23 -20 57 -51 76 -67 30 -27 35 -28
43 -13 7 12 17 15 35 10 13 -3 39 0 57 6 29 11 35 10 55 -10 11 -11 29 -21 39
-21 17 0 102 -113 102 -136 0 -7 6 -17 14 -23 8 -7 19 -34 25 -61 9 -40 7 -59
-8 -107 -30 -93 -25 -137 11 -104 12 12 29 21 39 21 23 0 34 16 56 80 46 130
22 263 -71 395 -41 58 -99 97 -281 191 -130 67 -205 110 -205 119 0 2 14 25
31 50 40 59 79 80 133 70 23 -5 73 -8 111 -9 l70 -1 3 30 c2 17 13 40 25 53
18 19 19 26 9 42 -8 13 -9 20 -2 20 6 0 23 13 38 28 23 25 34 29 77 27 114 -4
171 -23 207 -69 35 -44 112 -96 142 -96 23 0 47 -23 102 -97 11 -15 28 -56 38
-90 17 -55 18 -73 7 -180 -22 -224 -22 -220 -11 -195 5 12 14 22 20 22 6 0 9
4 6 8 -2 4 4 27 15 51 10 24 19 52 19 63 0 10 6 31 14 47 14 26 20 57 32 166
13 116 -40 254 -136 351 -118 121 -258 168 -459 152z"/>
<path d="M7677 6213 c-4 -3 -7 -18 -7 -33 0 -29 24 -56 55 -61 39 -7 60 -73
60 -191 l0 -107 -98 -95 c-108 -106 -143 -164 -133 -220 11 -56 38 -76 105
-76 49 0 65 5 99 30 23 17 42 34 42 39 0 16 -37 23 -85 16 -36 -6 -46 -4 -51
9 -12 31 6 62 91 156 56 62 84 101 81 112 -2 10 -1 20 3 22 10 6 12 106 3 106
-15 0 -31 47 -37 112 -10 96 -41 158 -80 158 -7 0 -15 7 -19 15 -6 16 -18 19
-29 8z"/>
<path d="M8589 5574 c-30 -26 -79 -65 -109 -87 -67 -50 -50 -60 27 -16 61 34
128 98 136 130 3 11 4 19 3 19 -1 0 -27 -21 -57 -46z"/>
<path d="M1651 5474 c0 -11 3 -14 6 -6 3 7 2 16 -1 19 -3 4 -6 -2 -5 -13z"/>
<path d="M7400 4201 c0 -6 5 -13 10 -16 6 -3 10 1 10 9 0 9 -4 16 -10 16 -5 0
-10 -4 -10 -9z"/>
<path d="M1942 3970 c14 -43 18 -49 18 -24 0 11 -7 29 -15 40 -13 17 -14 16
-3 -16z"/>
<path d="M6873 1844 c-15 -15 -17 -34 -4 -34 8 0 24 41 18 46 -1 1 -8 -4 -14
-12z"/>
<path d="M4055 1695 c11 -80 84 -576 91 -609 7 -38 12 -36 -107 -51 -32 -4
-54 -14 -70 -31 -13 -15 -70 -58 -127 -96 -101 -69 -122 -89 -165 -158 -18
-28 -49 -49 -157 -103 -74 -37 -126 -65 -115 -61 11 3 37 10 58 15 21 5 45 13
55 18 9 5 47 23 83 39 55 24 71 38 101 83 47 71 64 85 183 159 55 34 115 75
133 91 28 25 41 29 92 29 l60 0 -5 43 c-3 23 -12 83 -20 132 -8 50 -26 169
-40 265 -14 96 -32 198 -40 225 -14 47 -15 48 -10 10z"/>
<path d="M6480 1371 c0 -6 -7 -11 -15 -11 -11 0 -15 -11 -15 -40 0 -29 4 -40
15 -40 11 0 15 11 15 39 0 22 5 41 12 43 9 3 9 6 0 12 -7 4 -12 2 -12 -3z"/>
<path d="M6510 1350 c0 -5 5 -10 10 -10 6 0 10 5 10 10 0 6 -4 10 -10 10 -5 0
-10 -4 -10 -10z"/>
<path d="M6560 1331 c0 -9 24 -21 41 -21 5 0 9 7 9 15 0 9 -9 15 -25 15 -14 0
-25 -4 -25 -9z"/>
<path d="M6320 1320 c0 -5 18 -10 40 -10 22 0 40 5 40 10 0 6 -18 10 -40 10
-22 0 -40 -4 -40 -10z"/>
<path d="M6260 1265 c0 -8 7 -15 15 -15 8 0 15 7 15 15 0 8 -7 15 -15 15 -8 0
-15 -7 -15 -15z"/>
<path d="M6396 1265 c4 -8 7 -15 9 -15 1 0 8 7 15 15 10 13 9 15 -8 15 -15 0
-20 -5 -16 -15z"/>
<path d="M6300 1215 c0 -8 7 -15 15 -15 9 0 12 6 9 15 -4 8 -10 15 -15 15 -5
0 -9 -7 -9 -15z"/>
<path d="M4122 988 c-6 -7 -27 -49 -48 -93 -54 -116 -53 -173 4 -325 84 -222
180 -365 306 -456 68 -50 89 -49 34 1 -20 18 -34 36 -31 39 3 3 -6 21 -21 41
-15 19 -25 35 -22 35 2 0 -14 34 -35 76 -30 57 -38 84 -34 105 5 20 2 30 -12
38 -12 7 -13 11 -4 11 7 0 11 6 7 15 -3 8 -12 65 -21 127 -20 144 -43 290 -56
350 -9 40 -14 48 -34 48 -12 0 -27 -6 -33 -12z"/>
<path d="M6080 970 c0 -5 7 -10 16 -10 8 0 12 5 9 10 -3 6 -10 10 -16 10 -5 0
-9 -4 -9 -10z"/>
<path d="M6240 939 c-24 -10 -24 -11 -6 -25 23 -16 45 -18 66 -4 13 9 12 12
-4 25 -23 17 -23 17 -56 4z"/>
<path d="M1787 3 c18 -2 50 -2 70 0 21 2 7 4 -32 4 -38 0 -55 -2 -38 -4z"/>
<path d="M1973 3 c15 -2 37 -2 50 0 12 2 0 4 -28 4 -27 0 -38 -2 -22 -4z"/>
</g>
</svg>
